{
    "asset" : {
        "generator" : "Khronos glTF Blender I/O v1.6.16",
        "version" : "2.0"
    },
    "scene" : 0,
    "scenes" : [
        {
            "name" : "Scene",
            "nodes" : [
                0,
                1,
                10,
                11,
                12
            ]
        }
    ],
    "nodes" : [
        {
            "name" : "Light.001",
            "rotation" : [
                -0.004387915134429932,
                0.11023721098899841,
                -0.8223651647567749,
                0.5581614971160889
            ],
            "translation" : [
                -6.506641387939453,
                13.738149642944336,
                -1.0054539442062378
            ]
        },
        {
            "name" : "Camera.001",
            "rotation" : [
                0.483536034822464,
                0.33687159419059753,
                -0.20870360732078552,
                0.7804827094078064
            ],
            "translation" : [
                7.358891487121582,
                4.958309173583984,
                6.925790786743164
            ]
        },
        {
            "mesh" : 0,
            "name" : "Body10",
            "scale" : [
                10,
                10,
                10
            ]
        },
        {
            "mesh" : 1,
            "name" : "Body11",
            "scale" : [
                10,
                10,
                10
            ]
        },
        {
            "mesh" : 2,
            "name" : "Body12",
            "scale" : [
                10,
                10,
                10
            ]
        },
        {
            "mesh" : 3,
            "name" : "Body13",
            "scale" : [
                10,
                10,
                10
            ]
        },
        {
            "mesh" : 4,
            "name" : "Body14",
            "scale" : [
                10,
                10,
                10
            ]
        },
        {
            "mesh" : 5,
            "name" : "Body15",
            "scale" : [
                10,
                10,
                10
            ]
        },
        {
            "mesh" : 6,
            "name" : "Body4",
            "scale" : [
                10,
                10,
                10
            ]
        },
        {
            "mesh" : 7,
            "name" : "Body8",
            "scale" : [
                10,
                10,
                10
            ]
        },
        {
            "children" : [
                2,
                3,
                4,
                5,
                6,
                7,
                8,
                9
            ],
            "name" : "VTOL Glider v1",
            "rotation" : [
                0.03361222520470619,
                0.00018073413230013102,
                0.005373919848352671,
                0.9994204640388489
            ],
            "scale" : [
                0.00478740781545639,
                0.00478740781545639,
                0.00478740781545639
            ]
        },
        {
            "name" : "Light",
            "rotation" : [
                0.7739131450653076,
                0.03162459284067154,
                -0.6218321919441223,
                -0.11568538844585419
            ],
            "translation" : [
                0.15540719032287598,
                6.522307395935059,
                -1.0054539442062378
            ]
        },
        {
            "name" : "Camera",
            "rotation" : [
                0.483536034822464,
                0.33687159419059753,
                -0.20870360732078552,
                0.7804827094078064
            ],
            "translation" : [
                7.358891487121582,
                4.958309173583984,
                6.925790786743164
            ]
        }
    ],
    "materials" : [
        {
            "doubleSided" : true,
            "name" : "Acetal Resin (White)",
            "pbrMetallicRoughness" : {
                "baseColorFactor" : [
                    0.9725490212440491,
                    0.9686274528503418,
                    0.929411768913269,
                    1
                ],
                "roughnessFactor" : 0.5527864098548889
            }
        },
        {
            "doubleSided" : true,
            "name" : "Steel - Satin",
            "pbrMetallicRoughness" : {
                "baseColorFactor" : [
                    0.6274510025978088,
                    0.6274510025978088,
                    0.6274510025978088,
                    1
                ],
                "roughnessFactor" : 0.5527864098548889
            }
        },
        {
            "doubleSided" : true,
            "name" : "Paek (Beige)",
            "pbrMetallicRoughness" : {
                "baseColorFactor" : [
                    0.8980392217636108,
                    0.7921568751335144,
                    0.6196078658103943,
                    1
                ],
                "roughnessFactor" : 0.5527864098548889
            }
        },
        {
            "doubleSided" : true,
            "name" : "Carbon Fiber - Twill",
            "pbrMetallicRoughness" : {
                "baseColorFactor" : [
                    0.09803921729326248,
                    0.09803921729326248,
                    0.09803921729326248,
                    1
                ],
                "roughnessFactor" : 0.5527864098548889
            }
        }
    ],
    "meshes" : [
        {
            "name" : "Body10",
            "primitives" : [
                {
                    "attributes" : {
                        "POSITION" : 0,
                        "NORMAL" : 1,
                        "TEXCOORD_0" : 2
                    },
                    "indices" : 3,
                    "material" : 0
                }
            ]
        },
        {
            "name" : "Body11",
            "primitives" : [
                {
                    "attributes" : {
                        "POSITION" : 4,
                        "NORMAL" : 5,
                        "TEXCOORD_0" : 6
                    },
                    "indices" : 7,
                    "material" : 0
                }
            ]
        },
        {
            "name" : "Body12",
            "primitives" : [
                {
                    "attributes" : {
                        "POSITION" : 8,
                        "NORMAL" : 9,
                        "TEXCOORD_0" : 10
                    },
                    "indices" : 11,
                    "material" : 1
                }
            ]
        },
        {
            "name" : "Body13",
            "primitives" : [
                {
                    "attributes" : {
                        "POSITION" : 12,
                        "NORMAL" : 13,
                        "TEXCOORD_0" : 14
                    },
                    "indices" : 11,
                    "material" : 0
                }
            ]
        },
        {
            "name" : "Body14",
            "primitives" : [
                {
                    "attributes" : {
                        "POSITION" : 15,
                        "NORMAL" : 16,
                        "TEXCOORD_0" : 17
                    },
                    "indices" : 18,
                    "material" : 0
                }
            ]
        },
        {
            "name" : "Body15",
            "primitives" : [
                {
                    "attributes" : {
                        "POSITION" : 19,
                        "NORMAL" : 20,
                        "TEXCOORD_0" : 21
                    },
                    "indices" : 22,
                    "material" : 2
                }
            ]
        },
        {
            "name" : "Body4",
            "primitives" : [
                {
                    "attributes" : {
                        "POSITION" : 23,
                        "NORMAL" : 24,
                        "TEXCOORD_0" : 25
                    },
                    "indices" : 26,
                    "material" : 3
                }
            ]
        },
        {
            "name" : "Body8",
            "primitives" : [
                {
                    "attributes" : {
                        "POSITION" : 27,
                        "NORMAL" : 28,
                        "TEXCOORD_0" : 29
                    },
                    "indices" : 30,
                    "material" : 3
                }
            ]
        }
    ],
    "accessors" : [
        {
            "bufferView" : 0,
            "componentType" : 5126,
            "count" : 1258,
            "max" : [
                40.19952392578125,
                63.25,
                40.19952392578125
            ],
            "min" : [
                17.800477981567383,
                63,
                18.59315299987793
            ],
            "type" : "VEC3"
        },
        {
            "bufferView" : 1,
            "componentType" : 5126,
            "count" : 1258,
            "type" : "VEC3"
        },
        {
            "bufferView" : 2,
            "componentType" : 5126,
            "count" : 1258,
            "type" : "VEC2"
        },
        {
            "bufferView" : 3,
            "componentType" : 5123,
            "count" : 2988,
            "type" : "SCALAR"
        },
        {
            "bufferView" : 4,
            "componentType" : 5126,
            "count" : 1265,
            "max" : [
                -17.80047607421875,
                63.25,
                40.19952392578125
            ],
            "min" : [
                -40.19952392578125,
                63,
                18.59315299987793
            ],
            "type" : "VEC3"
        },
        {
            "bufferView" : 5,
            "componentType" : 5126,
            "count" : 1265,
            "type" : "VEC3"
        },
        {
            "bufferView" : 6,
            "componentType" : 5126,
            "count" : 1265,
            "type" : "VEC2"
        },
        {
            "bufferView" : 7,
            "componentType" : 5123,
            "count" : 2988,
            "type" : "SCALAR"
        },
        {
            "bufferView" : 8,
            "componentType" : 5126,
            "count" : 1210,
            "max" : [
                -17.80047607421875,
                63.25,
                -17.800474166870117
            ],
            "min" : [
                -40.19952392578125,
                63,
                -39.4068489074707
            ],
            "type" : "VEC3"
        },
        {
            "bufferView" : 9,
            "componentType" : 5126,
            "count" : 1210,
            "type" : "VEC3"
        },
        {
            "bufferView" : 10,
            "componentType" : 5126,
            "count" : 1210,
            "type" : "VEC2"
        },
        {
            "bufferView" : 11,
            "componentType" : 5123,
            "count" : 2988,
            "type" : "SCALAR"
        },
        {
            "bufferView" : 12,
            "componentType" : 5126,
            "count" : 1210,
            "max" : [
                -17.80047607421875,
                63.25,
                -17.800474166870117
            ],
            "min" : [
                -40.19952392578125,
                63,
                -39.4068489074707
            ],
            "type" : "VEC3"
        },
        {
            "bufferView" : 13,
            "componentType" : 5126,
            "count" : 1210,
            "type" : "VEC3"
        },
        {
            "bufferView" : 14,
            "componentType" : 5126,
            "count" : 1210,
            "type" : "VEC2"
        },
        {
            "bufferView" : 15,
            "componentType" : 5126,
            "count" : 1217,
            "max" : [
                40.19952392578125,
                63.25,
                -17.800474166870117
            ],
            "min" : [
                17.800477981567383,
                63,
                -39.4068489074707
            ],
            "type" : "VEC3"
        },
        {
            "bufferView" : 16,
            "componentType" : 5126,
            "count" : 1217,
            "type" : "VEC3"
        },
        {
            "bufferView" : 17,
            "componentType" : 5126,
            "count" : 1217,
            "type" : "VEC2"
        },
        {
            "bufferView" : 18,
            "componentType" : 5123,
            "count" : 2988,
            "type" : "SCALAR"
        },
        {
            "bufferView" : 19,
            "componentType" : 5126,
            "count" : 79,
            "max" : [
                6.558586597442627,
                52.5,
                10.014562606811523
            ],
            "min" : [
                -6.655029296875,
                30,
                -10.51373291015625
            ],
            "type" : "VEC3"
        },
        {
            "bufferView" : 20,
            "componentType" : 5126,
            "count" : 79,
            "type" : "VEC3"
        },
        {
            "bufferView" : 21,
            "componentType" : 5126,
            "count" : 79,
            "type" : "VEC2"
        },
        {
            "bufferView" : 22,
            "componentType" : 5123,
            "count" : 144,
            "type" : "SCALAR"
        },
        {
            "bufferView" : 23,
            "componentType" : 5126,
            "count" : 21572,
            "max" : [
                110.81138610839844,
                68.25,
                30.53880500793457
            ],
            "min" : [
                -110.81138610839844,
                29.5,
                -85
            ],
            "type" : "VEC3"
        },
        {
            "bufferView" : 24,
            "componentType" : 5126,
            "count" : 21572,
            "type" : "VEC3"
        },
        {
            "bufferView" : 25,
            "componentType" : 5126,
            "count" : 21572,
            "type" : "VEC2"
        },
        {
            "bufferView" : 26,
            "componentType" : 5123,
            "count" : 67566,
            "type" : "SCALAR"
        },
        {
            "bufferView" : 27,
            "componentType" : 5126,
            "count" : 1804,
            "max" : [
                40,
                60.76724624633789,
                -77.15789031982422
            ],
            "min" : [
                -40,
                59.849342346191406,
                -86.4234848022461
            ],
            "type" : "VEC3"
        },
        {
            "bufferView" : 28,
            "componentType" : 5126,
            "count" : 1804,
            "type" : "VEC3"
        },
        {
            "bufferView" : 29,
            "componentType" : 5126,
            "count" : 1804,
            "type" : "VEC2"
        },
        {
            "bufferView" : 30,
            "componentType" : 5123,
            "count" : 6006,
            "type" : "SCALAR"
        }
    ],
    "bufferViews" : [
        {
            "buffer" : 0,
            "byteLength" : 15096,
            "byteOffset" : 0
        },
        {
            "buffer" : 0,
            "byteLength" : 15096,
            "byteOffset" : 15096
        },
        {
            "buffer" : 0,
            "byteLength" : 10064,
            "byteOffset" : 30192
        },
        {
            "buffer" : 0,
            "byteLength" : 5976,
            "byteOffset" : 40256
        },
        {
            "buffer" : 0,
            "byteLength" : 15180,
            "byteOffset" : 46232
        },
        {
            "buffer" : 0,
            "byteLength" : 15180,
            "byteOffset" : 61412
        },
        {
            "buffer" : 0,
            "byteLength" : 10120,
            "byteOffset" : 76592
        },
        {
            "buffer" : 0,
            "byteLength" : 5976,
            "byteOffset" : 86712
        },
        {
            "buffer" : 0,
            "byteLength" : 14520,
            "byteOffset" : 92688
        },
        {
            "buffer" : 0,
            "byteLength" : 14520,
            "byteOffset" : 107208
        },
        {
            "buffer" : 0,
            "byteLength" : 9680,
            "byteOffset" : 121728
        },
        {
            "buffer" : 0,
            "byteLength" : 5976,
            "byteOffset" : 131408
        },
        {
            "buffer" : 0,
            "byteLength" : 14520,
            "byteOffset" : 137384
        },
        {
            "buffer" : 0,
            "byteLength" : 14520,
            "byteOffset" : 151904
        },
        {
            "buffer" : 0,
            "byteLength" : 9680,
            "byteOffset" : 166424
        },
        {
            "buffer" : 0,
            "byteLength" : 14604,
            "byteOffset" : 176104
        },
        {
            "buffer" : 0,
            "byteLength" : 14604,
            "byteOffset" : 190708
        },
        {
            "buffer" : 0,
            "byteLength" : 9736,
            "byteOffset" : 205312
        },
        {
            "buffer" : 0,
            "byteLength" : 5976,
            "byteOffset" : 215048
        },
        {
            "buffer" : 0,
            "byteLength" : 948,
            "byteOffset" : 221024
        },
        {
            "buffer" : 0,
            "byteLength" : 948,
            "byteOffset" : 221972
        },
        {
            "buffer" : 0,
            "byteLength" : 632,
            "byteOffset" : 222920
        },
        {
            "buffer" : 0,
            "byteLength" : 288,
            "byteOffset" : 223552
        },
        {
            "buffer" : 0,
            "byteLength" : 258864,
            "byteOffset" : 223840
        },
        {
            "buffer" : 0,
            "byteLength" : 258864,
            "byteOffset" : 482704
        },
        {
            "buffer" : 0,
            "byteLength" : 172576,
            "byteOffset" : 741568
        },
        {
            "buffer" : 0,
            "byteLength" : 135132,
            "byteOffset" : 914144
        },
        {
            "buffer" : 0,
            "byteLength" : 21648,
            "byteOffset" : 1049276
        },
        {
            "buffer" : 0,
            "byteLength" : 21648,
            "byteOffset" : 1070924
        },
        {
            "buffer" : 0,
            "byteLength" : 14432,
            "byteOffset" : 1092572
        },
        {
            "buffer" : 0,
            "byteLength" : 12012,
            "byteOffset" : 1107004
        }
    ],
    "buffers" : [
        {
            "byteLength" : 1119016,
            "uri" : "data:application/octet-stream;base64,"
        }
    ]
}
